<?xml version="1.0" standalone="no"?>
<!DOCTYPE svg PUBLIC "-//W3C//DTD SVG 20010904//EN"
 "http://www.w3.org/TR/2001/REC-SVG-20010904/DTD/svg10.dtd">
<svg version="1.0" xmlns="http://www.w3.org/2000/svg"
 width="400.000000pt" height="400.000000pt" viewBox="0 0 400.000000 400.000000"
 preserveAspectRatio="xMidYMid meet">

<g transform="translate(0.000000,400.000000) scale(0.100000,-0.100000)"
fill="#000000" stroke="none">
<path d="M1475 3034 c-41 -21 -81 -61 -94 -93 -8 -18 -11 -303 -9 -957 l3
-931 29 -37 c50 -67 46 -66 536 -66 l440 0 44 41 c53 48 72 92 50 113 -20 20
-36 12 -54 -27 -8 -17 -30 -42 -49 -54 -34 -23 -35 -23 -445 -23 -390 0 -413
1 -443 20 -67 40 -64 -16 -61 989 l3 910 30 31 c33 35 88 52 147 48 39 -3 41
-5 60 -53 35 -94 39 -95 267 -95 230 0 233 1 271 95 21 53 24 55 59 55 71 -1
115 -17 147 -56 21 -25 37 -35 48 -31 39 15 -3 89 -68 118 -38 17 -73 19 -461
19 -361 0 -424 -2 -450 -16z m675 -49 c0 -9 -7 -29 -15 -45 l-16 -30 -189 0
-189 0 -16 30 c-32 62 -37 60 205 60 192 0 220 -2 220 -15z"/>
<path d="M2400 2821 c-116 -36 -189 -142 -177 -257 21 -205 272 -292 414 -143
91 96 79 277 -23 355 -58 45 -151 64 -214 45z m164 -82 c37 -25 86 -106 86
-143 0 -114 -106 -208 -214 -192 -146 22 -209 202 -108 310 40 42 79 57 144
53 39 -2 67 -10 92 -28z"/>
<path d="M2424 2702 c-41 -45 -45 -88 -11 -120 13 -12 31 -22 40 -22 21 0 32
-19 18 -33 -7 -7 -16 -6 -30 7 -23 21 -51 15 -51 -11 1 -21 54 -83 72 -83 24
0 68 67 68 103 0 35 -24 67 -52 67 -9 0 -21 7 -28 15 -10 12 -9 16 5 22 12 4
23 0 31 -12 7 -10 20 -15 29 -12 22 9 19 54 -5 69 -11 7 -20 18 -20 24 0 29
-33 22 -66 -14z"/>
<path d="M2297 2334 c-4 -4 -7 -63 -7 -131 0 -123 0 -124 23 -121 21 3 22 6
22 128 0 105 -2 125 -15 128 -9 1 -19 0 -23 -4z"/>
<path d="M2585 2318 c-3 -13 -5 -70 -3 -128 3 -105 3 -105 28 -105 25 0 25 0
28 105 3 125 -1 150 -28 150 -12 0 -22 -9 -25 -22z"/>
<path d="M2436 2285 c-9 -25 -7 -178 3 -193 5 -8 17 -12 27 -10 17 3 19 13 19
108 0 99 -1 105 -21 108 -13 2 -24 -4 -28 -13z"/>
<path d="M1974 2010 c-57 -36 -59 -53 -59 -405 0 -287 2 -323 18 -352 34 -63
32 -63 499 -63 396 0 425 1 454 19 46 28 64 75 64 170 0 61 3 81 13 81 8 0 21
8 30 18 14 15 17 41 17 134 0 99 -3 117 -18 131 -16 15 -49 17 -250 17 -289 0
-272 9 -272 -150 0 -157 -10 -150 230 -150 l190 0 0 -45 0 -45 -460 0 -460 0
0 240 0 239 83 3 c80 3 82 4 82 28 0 24 -2 25 -82 28 -46 2 -83 6 -83 10 1 16
28 42 54 52 38 14 773 14 815 -1 27 -10 51 -34 51 -53 0 -3 -116 -6 -259 -6
-218 0 -261 -2 -271 -15 -10 -12 -10 -18 0 -30 10 -13 53 -15 270 -15 249 0
258 -1 263 -20 8 -30 45 -26 53 6 9 36 -3 109 -22 140 -36 54 -38 54 -496 54
-407 0 -424 -1 -454 -20z m981 -400 l0 -95 -212 -3 -213 -2 0 100 0 100 213
-2 212 -3 0 -95z m-65 -309 c0 -5 -9 -19 -19 -32 l-19 -24 -389 -3 c-213 -2
-403 0 -421 3 -30 6 -72 39 -72 57 0 4 207 8 460 8 262 0 460 -4 460 -9z"/>
<path d="M2593 1678 c-33 -16 -48 -61 -33 -98 23 -55 84 -67 125 -25 65 64 -8
163 -92 123z m57 -68 c0 -13 -7 -20 -20 -20 -13 0 -20 7 -20 20 0 13 7 20 20
20 13 0 20 -7 20 -20z"/>
<path d="M2220 1895 c-10 -12 -10 -18 0 -30 20 -25 55 -15 55 15 0 30 -35 40
-55 15z"/>
<path d="M1640 1105 c-7 -8 -10 -22 -6 -30 5 -13 43 -15 293 -13 273 3 288 4
291 22 2 10 -2 22 -10 27 -7 5 -135 9 -284 9 -228 0 -274 -2 -284 -15z"/>
</g>
</svg>
