<?xml version="1.0" standalone="no"?>
<!DOCTYPE svg PUBLIC "-//W3C//DTD SVG 20010904//EN"
 "http://www.w3.org/TR/2001/REC-SVG-20010904/DTD/svg10.dtd">
<svg version="1.0" xmlns="http://www.w3.org/2000/svg"
 width="400.000000pt" height="400.000000pt" viewBox="0 0 400.000000 400.000000"
 preserveAspectRatio="xMidYMid meet">

<g transform="translate(0.000000,400.000000) scale(0.100000,-0.100000)"
fill="#000000" stroke="none">
<path d="M866 2879 c-59 -46 -56 -7 -56 -879 0 -882 -2 -851 62 -890 32 -20
46 -20 481 -18 l449 3 34 37 34 38 0 147 0 148 -60 27 -60 26 0 -89 0 -89
-405 0 -405 0 0 690 0 690 405 0 405 0 0 -61 c0 -33 3 -59 8 -57 4 2 31 15 59
29 l53 24 0 78 c0 86 -14 124 -54 151 -23 14 -74 16 -474 16 -440 0 -450 0
-476 -21z m634 -64 l0 -35 -155 0 -155 0 0 35 0 35 155 0 155 0 0 -35z m-120
-1553 c27 -22 29 -65 5 -92 -50 -55 -139 24 -92 82 24 31 57 35 87 10z"/>
<path d="M2171 2874 c-35 -29 -51 -77 -51 -154 0 -55 1 -56 65 -120 l65 -64 0
92 0 92 405 0 405 0 0 -690 0 -690 -405 0 -405 0 0 61 c0 33 -3 59 -7 57 -5
-2 -34 -17 -67 -32 l-58 -28 4 -107 c3 -81 8 -113 22 -137 39 -65 29 -64 511
-64 479 0 472 -1 509 60 14 25 16 107 16 855 l0 827 -34 34 -34 34 -455 0
-455 0 -31 -26z m639 -59 l0 -35 -155 0 -155 0 0 35 0 35 155 0 155 0 0 -35z
m-115 -1560 c14 -13 25 -33 25 -45 0 -28 -35 -60 -65 -60 -30 0 -65 32 -65 60
0 25 42 70 65 70 9 0 27 -11 40 -25z"/>
<path d="M1815 2496 c-65 -33 -214 -156 -170 -140 200 69 286 64 388 -26 19
-16 46 -48 62 -70 l28 -41 -56 -57 c-31 -32 -57 -61 -57 -65 0 -4 81 -7 180
-7 l180 0 0 187 0 187 -58 -57 -59 -58 -64 63 c-82 82 -142 111 -234 116 -64
3 -76 1 -140 -32z"/>
<path d="M1750 2155 l0 -125 60 0 60 0 0 125 0 125 -60 0 -60 0 0 -125z"/>
<path d="M2120 1905 l0 -125 65 0 65 0 0 125 0 125 -65 0 -65 0 0 -125z"/>
<path d="M1627 1963 c-9 -9 -9 -363 0 -363 4 0 33 26 65 57 l58 57 17 -24 c30
-45 93 -100 146 -127 45 -24 64 -28 137 -28 80 0 89 2 150 37 64 37 173 128
153 128 -6 0 -26 -6 -44 -14 -19 -7 -66 -19 -105 -26 -107 -19 -159 -4 -238
70 -34 32 -68 70 -76 84 -13 26 -12 29 43 84 31 32 57 61 57 65 0 9 -354 9
-363 0z"/>
</g>
</svg>
