<?xml version="1.0" standalone="no"?>
<!DOCTYPE svg PUBLIC "-//W3C//DTD SVG 20010904//EN"
 "http://www.w3.org/TR/2001/REC-SVG-20010904/DTD/svg10.dtd">
<svg version="1.0" xmlns="http://www.w3.org/2000/svg"
 width="400.000000pt" height="400.000000pt" viewBox="0 0 400.000000 400.000000"
 preserveAspectRatio="xMidYMid meet">

<g transform="translate(0.000000,400.000000) scale(0.100000,-0.100000)"
fill="#000000" stroke="none">
<path d="M1919 3242 c-43 -22 -59 -38 -82 -82 -25 -47 -28 -63 -24 -107 l6
-53 -70 0 -69 0 0 -40 0 -40 -170 0 c-150 0 -175 -2 -209 -20 -50 -25 -105
-89 -119 -139 -18 -60 -16 -1623 2 -1674 20 -54 61 -104 109 -130 l42 -22 665
0 665 0 46 27 c54 32 94 86 109 148 8 31 10 285 8 840 -3 741 -4 798 -21 835
-24 53 -63 93 -112 116 -34 16 -66 19 -197 19 l-158 0 0 40 0 40 -69 0 -68 0
0 63 c0 72 -16 110 -67 155 -66 57 -138 65 -217 24z m133 -129 c22 -20 23 -61
1 -85 -34 -38 -103 -11 -103 40 0 54 62 81 102 45z m-372 -398 l0 -75 330 0
330 0 0 76 0 75 151 -3 151 -3 24 -28 24 -28 0 -799 0 -798 -26 -31 -26 -31
-639 0 -640 0 -24 25 -25 24 0 803 c0 873 -2 836 54 858 11 5 87 9 169 9 l147
1 0 -75z"/>
<path d="M1470 2395 l0 -65 530 0 530 0 0 65 0 65 -530 0 -530 0 0 -65z"/>
<path d="M1599 2078 c-28 -40 -54 -80 -59 -88 -7 -13 -13 -11 -34 9 -23 22
-28 23 -41 10 -13 -13 -10 -20 29 -58 l44 -43 72 107 c65 96 79 135 51 135 -6
0 -33 -33 -62 -72z"/>
<path d="M1760 2045 l0 -25 345 0 345 0 0 25 0 25 -345 0 -345 0 0 -25z"/>
<path d="M1595 1785 c-32 -47 -60 -85 -63 -85 -3 0 -16 10 -29 22 -22 21 -24
21 -40 5 -16 -16 -15 -19 22 -57 21 -22 44 -40 50 -40 5 0 36 40 68 88 32 48
65 97 73 109 14 20 14 22 -4 32 -17 9 -26 0 -77 -74z"/>
<path d="M1760 1760 c0 -20 7 -20 345 -20 338 0 345 0 345 20 0 20 -7 20 -345
20 -338 0 -345 0 -345 -20z"/>
<path d="M1598 1503 c-29 -43 -56 -82 -60 -87 -4 -6 -17 -1 -33 14 -22 21 -27
22 -40 9 -13 -13 -10 -20 29 -58 l43 -43 76 109 c54 78 72 111 65 121 -6 6
-14 12 -19 12 -5 0 -32 -35 -61 -77z"/>
<path d="M1760 1470 c0 -20 7 -20 345 -20 338 0 345 0 345 20 0 20 -7 20 -345
20 -338 0 -345 0 -345 -20z"/>
</g>
</svg>
